<ttFont>
    <TTGlyph name=".notdef" xMin="193" yMin="0" xMax="1034" yMax="1462">
      <contour>
        <pt x="193" y="1462" on="1"/>
        <pt x="1034" y="1462" on="1"/>
        <pt x="1034" y="0" on="1"/>
        <pt x="193" y="0" on="1"/>
      </contour>
      <contour>
        <pt x="297" y="104" on="1"/>
        <pt x="930" y="104" on="1"/>
        <pt x="930" y="1358" on="1"/>
        <pt x="297" y="1358" on="1"/>
      </contour>
    </TTGlyph>
    <TTGlyph name="uni1700" xMin="172" yMin="0" xMax="2068" yMax="1595">
      <contour>
        <pt x="641" y="1061" on="1"/>
        <pt x="641" y="1032" on="1"/>
        <pt x="641" y="946" on="0"/>
        <pt x="612" y="759" on="0"/>
        <pt x="576" y="580" on="0"/>
        <pt x="547" y="419" on="0"/>
        <pt x="547" y="360" on="1"/>
        <pt x="547" y="139" on="0"/>
        <pt x="664" y="139" on="1"/>
        <pt x="713" y="139" on="0"/>
        <pt x="817" y="198" on="0"/>
        <pt x="926" y="309" on="0"/>
        <pt x="1064" y="501" on="0"/>
        <pt x="1217" y="754" on="1"/>
        <pt x="1311" y="909" on="1"/>
        <pt x="1449" y="1138" on="0"/>
        <pt x="1642" y="1298" on="0"/>
        <pt x="1769" y="1298" on="1"/>
        <pt x="1876" y="1298" on="0"/>
        <pt x="2028" y="1189" on="0"/>
        <pt x="2068" y="1092" on="1"/>
        <pt x="1939" y="1036" on="1"/>
        <pt x="1891" y="1159" on="0"/>
        <pt x="1765" y="1159" on="1"/>
        <pt x="1693" y="1159" on="0"/>
        <pt x="1574" y="1060" on="0"/>
        <pt x="1503" y="944" on="1"/>
        <pt x="1266" y="548" on="1"/>
        <pt x="1093" y="254" on="0"/>
        <pt x="802" y="0" on="0"/>
        <pt x="651" y="0" on="1"/>
        <pt x="533" y="0" on="0"/>
        <pt x="389" y="189" on="0"/>
        <pt x="389" y="344" on="1"/>
        <pt x="389" y="473" on="0"/>
        <pt x="434" y="670" on="1"/>
        <pt x="455" y="768" on="1"/>
        <pt x="172" y="768" on="1"/>
        <pt x="172" y="907" on="1"/>
        <pt x="477" y="907" on="1"/>
        <pt x="485" y="968" on="0"/>
        <pt x="485" y="1061" on="1"/>
        <pt x="172" y="1061" on="1"/>
        <pt x="172" y="1200" on="1"/>
        <pt x="471" y="1200" on="1"/>
        <pt x="444" y="1303" on="0"/>
        <pt x="309" y="1426" on="0"/>
        <pt x="184" y="1458" on="1"/>
        <pt x="217" y="1595" on="1"/>
        <pt x="360" y="1547" on="0"/>
        <pt x="509" y="1447" on="0"/>
        <pt x="604" y="1303" on="0"/>
        <pt x="627" y="1200" on="1"/>
        <pt x="928" y="1200" on="1"/>
        <pt x="928" y="1061" on="1"/>
      </contour>
    </TTGlyph>
    <TTGlyph name="uni1701" xMin="66" yMin="160" xMax="2003" yMax="1186">
      <contour>
        <pt x="369" y="160" on="1"/>
        <pt x="187" y="160" on="0"/>
        <pt x="72" y="233" on="1"/>
        <pt x="145" y="352" on="1"/>
        <pt x="227" y="299" on="0"/>
        <pt x="369" y="299" on="1"/>
        <pt x="515" y="299" on="0"/>
        <pt x="730" y="528" on="0"/>
        <pt x="782" y="741" on="1"/>
        <pt x="877" y="741" on="1"/>
        <pt x="918" y="564" on="0"/>
        <pt x="999" y="459" on="1"/>
        <pt x="1046" y="493" on="0"/>
        <pt x="1164" y="674" on="0"/>
        <pt x="1190" y="741" on="1"/>
        <pt x="1284" y="741" on="1"/>
        <pt x="1321" y="535" on="0"/>
        <pt x="1511" y="299" on="0"/>
        <pt x="1647" y="299" on="1"/>
        <pt x="1702" y="299" on="0"/>
        <pt x="1783" y="323" on="0"/>
        <pt x="1845" y="358" on="1"/>
        <pt x="1911" y="236" on="1"/>
        <pt x="1822" y="189" on="0"/>
        <pt x="1715" y="160" on="0"/>
        <pt x="1649" y="160" on="1"/>
        <pt x="1510" y="160" on="0"/>
        <pt x="1296" y="315" on="0"/>
        <pt x="1210" y="492" on="1"/>
        <pt x="1086" y="328" on="0"/>
        <pt x="973" y="258" on="1"/>
        <pt x="880" y="366" on="0"/>
        <pt x="831" y="469" on="1"/>
        <pt x="750" y="320" on="0"/>
        <pt x="510" y="160" on="0"/>
      </contour>
      <contour>
        <pt x="580" y="870" on="1"/>
        <pt x="442" y="870" on="0"/>
        <pt x="207" y="955" on="0"/>
        <pt x="66" y="1059" on="1"/>
        <pt x="143" y="1174" on="1"/>
        <pt x="271" y="1082" on="0"/>
        <pt x="460" y="1010" on="0"/>
        <pt x="584" y="1010" on="1"/>
        <pt x="774" y="1010" on="0"/>
        <pt x="1044" y="1100" on="1"/>
        <pt x="1308" y="1186" on="0"/>
        <pt x="1485" y="1186" on="1"/>
        <pt x="1623" y="1186" on="0"/>
        <pt x="1859" y="1101" on="0"/>
        <pt x="2003" y="997" on="1"/>
        <pt x="1917" y="887" on="1"/>
        <pt x="1788" y="982" on="0"/>
        <pt x="1584" y="1047" on="0"/>
        <pt x="1458" y="1047" on="1"/>
        <pt x="1346" y="1047" on="0"/>
        <pt x="1172" y="993" on="1"/>
        <pt x="919" y="914" on="0"/>
        <pt x="680" y="870" on="0"/>
      </contour>
    </TTGlyph>
    <TTGlyph name="uni1702" xMin="98" yMin="0" xMax="997" yMax="1298">
      <contour>
        <pt x="221" y="1223" on="1"/>
        <pt x="308" y="1263" on="0"/>
        <pt x="462" y="1298" on="0"/>
        <pt x="578" y="1298" on="1"/>
        <pt x="758" y="1298" on="0"/>
        <pt x="958" y="1140" on="0"/>
        <pt x="958" y="1001" on="1"/>
        <pt x="958" y="810" on="0"/>
        <pt x="778" y="729" on="1"/>
        <pt x="876" y="702" on="0"/>
        <pt x="997" y="532" on="0"/>
        <pt x="997" y="416" on="1"/>
        <pt x="997" y="223" on="0"/>
        <pt x="722" y="0" on="0"/>
        <pt x="498" y="0" on="1"/>
        <pt x="388" y="0" on="0"/>
        <pt x="201" y="30" on="0"/>
        <pt x="98" y="68" on="1"/>
        <pt x="150" y="201" on="1"/>
        <pt x="209" y="174" on="0"/>
        <pt x="403" y="139" on="0"/>
        <pt x="496" y="139" on="1"/>
        <pt x="601" y="139" on="0"/>
        <pt x="756" y="211" on="0"/>
        <pt x="842" y="338" on="0"/>
        <pt x="842" y="414" on="1"/>
        <pt x="842" y="520" on="0"/>
        <pt x="696" y="637" on="0"/>
        <pt x="547" y="637" on="1"/>
        <pt x="406" y="637" on="1"/>
        <pt x="406" y="776" on="1"/>
        <pt x="500" y="776" on="1"/>
        <pt x="635" y="776" on="0"/>
        <pt x="801" y="896" on="0"/>
        <pt x="801" y="993" on="1"/>
        <pt x="801" y="1072" on="0"/>
        <pt x="676" y="1159" on="0"/>
        <pt x="569" y="1159" on="1"/>
        <pt x="497" y="1159" on="0"/>
        <pt x="338" y="1123" on="0"/>
        <pt x="279" y="1094" on="1"/>
      </contour>
    </TTGlyph>
    <TTGlyph name="uni1703" xMin="104" yMin="43" xMax="1911" yMax="1239">
      <contour>
        <pt x="1522" y="510" on="1"/>
        <pt x="1628" y="510" on="0"/>
        <pt x="1806" y="463" on="0"/>
        <pt x="1911" y="408" on="1"/>
        <pt x="1847" y="283" on="1"/>
        <pt x="1748" y="334" on="0"/>
        <pt x="1611" y="371" on="0"/>
        <pt x="1530" y="371" on="1"/>
        <pt x="1479" y="371" on="0"/>
        <pt x="1341" y="336" on="0"/>
        <pt x="1305" y="319" on="1"/>
        <pt x="766" y="94" on="1"/>
        <pt x="644" y="43" on="0"/>
        <pt x="518" y="43" on="1"/>
        <pt x="408" y="43" on="0"/>
        <pt x="220" y="118" on="0"/>
        <pt x="104" y="217" on="1"/>
        <pt x="195" y="326" on="1"/>
        <pt x="273" y="251" on="0"/>
        <pt x="426" y="182" on="0"/>
        <pt x="522" y="182" on="1"/>
        <pt x="620" y="182" on="0"/>
        <pt x="711" y="221" on="1"/>
        <pt x="940" y="317" on="1"/>
        <pt x="940" y="895" on="1"/>
        <pt x="766" y="823" on="1"/>
        <pt x="644" y="772" on="0"/>
        <pt x="518" y="772" on="1"/>
        <pt x="408" y="772" on="0"/>
        <pt x="220" y="847" on="0"/>
        <pt x="104" y="946" on="1"/>
        <pt x="195" y="1055" on="1"/>
        <pt x="273" y="980" on="0"/>
        <pt x="426" y="911" on="0"/>
        <pt x="522" y="911" on="1"/>
        <pt x="620" y="911" on="0"/>
        <pt x="711" y="950" on="1"/>
        <pt x="1249" y="1176" on="1"/>
        <pt x="1310" y="1202" on="0"/>
        <pt x="1461" y="1239" on="0"/>
        <pt x="1522" y="1239" on="1"/>
        <pt x="1628" y="1239" on="0"/>
        <pt x="1806" y="1192" on="0"/>
        <pt x="1911" y="1137" on="1"/>
        <pt x="1847" y="1012" on="1"/>
        <pt x="1748" y="1063" on="0"/>
        <pt x="1611" y="1100" on="0"/>
        <pt x="1530" y="1100" on="1"/>
        <pt x="1436" y="1100" on="0"/>
        <pt x="1305" y="1049" on="1"/>
        <pt x="1098" y="961" on="1"/>
        <pt x="1098" y="383" on="1"/>
        <pt x="1249" y="446" on="1"/>
        <pt x="1403" y="510" on="0"/>
      </contour>
    </TTGlyph>
    <TTGlyph name="uni1704" xMin="98" yMin="0" xMax="1661" yMax="1298">
      <contour>
        <pt x="221" y="1223" on="1"/>
        <pt x="308" y="1263" on="0"/>
        <pt x="462" y="1298" on="0"/>
        <pt x="578" y="1298" on="1"/>
        <pt x="794" y="1298" on="0"/>
        <pt x="893" y="1184" on="1"/>
        <pt x="986" y="1239" on="0"/>
        <pt x="1098" y="1239" on="1"/>
        <pt x="1261" y="1239" on="0"/>
        <pt x="1407" y="994" on="0"/>
        <pt x="1407" y="719" on="1"/>
        <pt x="1407" y="424" on="1"/>
        <pt x="1407" y="288" on="0"/>
        <pt x="1452" y="185" on="0"/>
        <pt x="1558" y="139" on="0"/>
        <pt x="1661" y="139" on="1"/>
        <pt x="1661" y="0" on="1"/>
        <pt x="1640" y="0" on="1"/>
        <pt x="1496" y="0" on="0"/>
        <pt x="1326" y="86" on="0"/>
        <pt x="1249" y="256" on="0"/>
        <pt x="1249" y="424" on="1"/>
        <pt x="1249" y="719" on="1"/>
        <pt x="1249" y="921" on="0"/>
        <pt x="1173" y="1100" on="0"/>
        <pt x="1079" y="1100" on="1"/>
        <pt x="1020" y="1100" on="0"/>
        <pt x="952" y="1065" on="1"/>
        <pt x="958" y="1033" on="0"/>
        <pt x="958" y="1001" on="1"/>
        <pt x="958" y="810" on="0"/>
        <pt x="778" y="729" on="1"/>
        <pt x="876" y="702" on="0"/>
        <pt x="997" y="532" on="0"/>
        <pt x="997" y="416" on="1"/>
        <pt x="997" y="223" on="0"/>
        <pt x="722" y="0" on="0"/>
        <pt x="498" y="0" on="1"/>
        <pt x="388" y="0" on="0"/>
        <pt x="201" y="30" on="0"/>
        <pt x="98" y="68" on="1"/>
        <pt x="150" y="201" on="1"/>
        <pt x="209" y="174" on="0"/>
        <pt x="403" y="139" on="0"/>
        <pt x="496" y="139" on="1"/>
        <pt x="601" y="139" on="0"/>
        <pt x="756" y="211" on="0"/>
        <pt x="842" y="338" on="0"/>
        <pt x="842" y="414" on="1"/>
        <pt x="842" y="520" on="0"/>
        <pt x="696" y="637" on="0"/>
        <pt x="547" y="637" on="1"/>
        <pt x="406" y="637" on="1"/>
        <pt x="406" y="776" on="1"/>
        <pt x="500" y="776" on="1"/>
        <pt x="635" y="776" on="0"/>
        <pt x="801" y="896" on="0"/>
        <pt x="801" y="993" on="1"/>
        <pt x="801" y="1072" on="0"/>
        <pt x="676" y="1159" on="0"/>
        <pt x="569" y="1159" on="1"/>
        <pt x="497" y="1159" on="0"/>
        <pt x="338" y="1123" on="0"/>
        <pt x="279" y="1094" on="1"/>
      </contour>
    </TTGlyph>
    <TTGlyph name="uni1705" xMin="106" yMin="0" xMax="1960" yMax="1313">
      <contour>
        <pt x="1073" y="666" on="1"/>
        <pt x="1156" y="666" on="0"/>
        <pt x="1268" y="717" on="0"/>
        <pt x="1335" y="780" on="1"/>
        <pt x="1422" y="858" on="0"/>
        <pt x="1553" y="918" on="0"/>
        <pt x="1632" y="918" on="1"/>
        <pt x="1781" y="918" on="0"/>
        <pt x="1960" y="731" on="0"/>
        <pt x="1960" y="580" on="1"/>
        <pt x="1960" y="402" on="0"/>
        <pt x="1729" y="154" on="0"/>
        <pt x="1526" y="117" on="1"/>
        <pt x="1491" y="248" on="1"/>
        <pt x="1644" y="284" on="0"/>
        <pt x="1812" y="457" on="0"/>
        <pt x="1812" y="582" on="1"/>
        <pt x="1812" y="669" on="0"/>
        <pt x="1710" y="778" on="0"/>
        <pt x="1632" y="778" on="1"/>
        <pt x="1574" y="778" on="0"/>
        <pt x="1489" y="733" on="0"/>
        <pt x="1436" y="678" on="1"/>
        <pt x="1356" y="598" on="0"/>
        <pt x="1181" y="526" on="0"/>
        <pt x="1073" y="526" on="1"/>
        <pt x="1063" y="408" on="0"/>
        <pt x="955" y="227" on="0"/>
        <pt x="783" y="131" on="0"/>
        <pt x="680" y="131" on="1"/>
        <pt x="587" y="131" on="0"/>
        <pt x="501" y="153" on="1"/>
        <pt x="415" y="174" on="0"/>
        <pt x="367" y="174" on="1"/>
        <pt x="326" y="174" on="0"/>
        <pt x="289" y="125" on="0"/>
        <pt x="289" y="90" on="1"/>
        <pt x="289" y="47" on="0"/>
        <pt x="307" y="0" on="1"/>
        <pt x="162" y="0" on="1"/>
        <pt x="141" y="53" on="0"/>
        <pt x="141" y="115" on="1"/>
        <pt x="141" y="202" on="0"/>
        <pt x="260" y="313" on="0"/>
        <pt x="360" y="313" on="1"/>
        <pt x="434" y="313" on="0"/>
        <pt x="524" y="292" on="1"/>
        <pt x="613" y="270" on="0"/>
        <pt x="670" y="270" on="1"/>
        <pt x="915" y="270" on="0"/>
        <pt x="915" y="590" on="1"/>
        <pt x="915" y="747" on="0"/>
        <pt x="809" y="907" on="0"/>
        <pt x="692" y="907" on="1"/>
        <pt x="600" y="907" on="0"/>
        <pt x="510" y="861" on="1"/>
        <pt x="419" y="815" on="0"/>
        <pt x="330" y="815" on="1"/>
        <pt x="224" y="815" on="0"/>
        <pt x="106" y="928" on="0"/>
        <pt x="106" y="1026" on="1"/>
        <pt x="106" y="1098" on="0"/>
        <pt x="199" y="1224" on="0"/>
        <pt x="330" y="1313" on="1"/>
        <pt x="408" y="1196" on="1"/>
        <pt x="307" y="1131" on="0"/>
        <pt x="254" y="1068" on="0"/>
        <pt x="254" y="1030" on="1"/>
        <pt x="254" y="954" on="0"/>
        <pt x="348" y="954" on="1"/>
        <pt x="387" y="954" on="0"/>
        <pt x="465" y="993" on="1"/>
        <pt x="568" y="1047" on="0"/>
        <pt x="680" y="1047" on="1"/>
        <pt x="851" y="1047" on="0"/>
        <pt x="1055" y="850" on="0"/>
      </contour>
    </TTGlyph>
    <TTGlyph name="uni1706" xMin="139" yMin="0" xMax="1931" yMax="1292">
      <contour>
        <pt x="291" y="0" on="1"/>
        <pt x="327" y="308" on="0"/>
        <pt x="496" y="596" on="1"/>
        <pt x="415" y="559" on="0"/>
        <pt x="344" y="559" on="1"/>
        <pt x="250" y="559" on="0"/>
        <pt x="139" y="666" on="0"/>
        <pt x="139" y="754" on="1"/>
        <pt x="139" y="848" on="0"/>
        <pt x="205" y="922" on="1"/>
        <pt x="311" y="831" on="1"/>
        <pt x="279" y="793" on="0"/>
        <pt x="279" y="760" on="1"/>
        <pt x="279" y="698" on="0"/>
        <pt x="354" y="698" on="1"/>
        <pt x="498" y="698" on="0"/>
        <pt x="762" y="938" on="1"/>
        <pt x="1148" y="1292" on="0"/>
        <pt x="1593" y="1292" on="1"/>
        <pt x="1785" y="1292" on="0"/>
        <pt x="1931" y="1225" on="1"/>
        <pt x="1872" y="1098" on="1"/>
        <pt x="1749" y="1153" on="0"/>
        <pt x="1593" y="1153" on="1"/>
        <pt x="1407" y="1153" on="0"/>
        <pt x="1011" y="977" on="0"/>
        <pt x="695" y="669" on="0"/>
        <pt x="489" y="250" on="0"/>
        <pt x="453" y="0" on="1"/>
      </contour>
    </TTGlyph>
    <TTGlyph name="uni1707" xMin="104" yMin="164" xMax="2042" yMax="1186">
      <contour>
        <pt x="596" y="303" on="1"/>
        <pt x="709" y="303" on="0"/>
        <pt x="932" y="344" on="0"/>
        <pt x="1079" y="389" on="1"/>
        <pt x="1264" y="443" on="0"/>
        <pt x="1443" y="475" on="0"/>
        <pt x="1524" y="475" on="1"/>
        <pt x="1662" y="475" on="0"/>
        <pt x="1904" y="388" on="0"/>
        <pt x="2042" y="287" on="1"/>
        <pt x="1956" y="176" on="1"/>
        <pt x="1829" y="270" on="0"/>
        <pt x="1630" y="336" on="0"/>
        <pt x="1497" y="336" on="1"/>
        <pt x="1385" y="336" on="0"/>
        <pt x="1216" y="284" on="1"/>
        <pt x="1118" y="254" on="0"/>
        <pt x="849" y="184" on="0"/>
        <pt x="672" y="164" on="0"/>
        <pt x="594" y="164" on="1"/>
        <pt x="410" y="164" on="0"/>
        <pt x="193" y="357" on="0"/>
        <pt x="193" y="514" on="1"/>
        <pt x="193" y="639" on="0"/>
        <pt x="297" y="839" on="0"/>
        <pt x="373" y="909" on="1"/>
        <pt x="238" y="959" on="0"/>
        <pt x="104" y="1059" on="1"/>
        <pt x="182" y="1174" on="1"/>
        <pt x="310" y="1082" on="0"/>
        <pt x="499" y="1010" on="0"/>
        <pt x="623" y="1010" on="1"/>
        <pt x="813" y="1010" on="0"/>
        <pt x="1083" y="1100" on="1"/>
        <pt x="1347" y="1186" on="0"/>
        <pt x="1524" y="1186" on="1"/>
        <pt x="1662" y="1186" on="0"/>
        <pt x="1902" y="1100" on="0"/>
        <pt x="2042" y="997" on="1"/>
        <pt x="1956" y="887" on="1"/>
        <pt x="1827" y="982" on="0"/>
        <pt x="1623" y="1047" on="0"/>
        <pt x="1497" y="1047" on="1"/>
        <pt x="1385" y="1047" on="0"/>
        <pt x="1211" y="993" on="1"/>
        <pt x="958" y="914" on="0"/>
        <pt x="719" y="870" on="0"/>
        <pt x="618" y="870" on="1"/>
        <pt x="574" y="870" on="0"/>
        <pt x="532" y="874" on="1"/>
        <pt x="453" y="818" on="0"/>
        <pt x="350" y="637" on="0"/>
        <pt x="350" y="518" on="1"/>
        <pt x="350" y="420" on="0"/>
        <pt x="473" y="303" on="0"/>
      </contour>
    </TTGlyph>
    <TTGlyph name="uni1708" xMin="152" yMin="-135" xMax="1591" yMax="1298">
      <contour>
        <pt x="766" y="1147" on="1"/>
        <pt x="556" y="1099" on="0"/>
        <pt x="309" y="722" on="0"/>
        <pt x="309" y="449" on="1"/>
        <pt x="309" y="313" on="0"/>
        <pt x="343" y="117" on="0"/>
        <pt x="381" y="0" on="1"/>
        <pt x="217" y="0" on="1"/>
        <pt x="152" y="181" on="0"/>
        <pt x="152" y="446" on="1"/>
        <pt x="152" y="693" on="0"/>
        <pt x="330" y="1075" on="0"/>
        <pt x="668" y="1298" on="0"/>
        <pt x="870" y="1298" on="1"/>
        <pt x="1072" y="1298" on="0"/>
        <pt x="1411" y="1076" on="0"/>
        <pt x="1591" y="691" on="0"/>
        <pt x="1591" y="446" on="1"/>
        <pt x="1591" y="187" on="0"/>
        <pt x="1524" y="0" on="1"/>
        <pt x="1360" y="0" on="1"/>
        <pt x="1398" y="117" on="0"/>
        <pt x="1432" y="310" on="0"/>
        <pt x="1432" y="449" on="1"/>
        <pt x="1432" y="637" on="0"/>
        <pt x="1300" y="959" on="0"/>
        <pt x="1061" y="1146" on="0"/>
        <pt x="905" y="1157" on="1"/>
        <pt x="905" y="1145" on="1"/>
        <pt x="905" y="1068" on="0"/>
        <pt x="969" y="1013" on="1"/>
        <pt x="1018" y="967" on="1"/>
        <pt x="1065" y="929" on="0"/>
        <pt x="1065" y="883" on="1"/>
        <pt x="1065" y="844" on="0"/>
        <pt x="997" y="774" on="0"/>
        <pt x="920" y="731" on="1"/>
        <pt x="889" y="715" on="0"/>
        <pt x="889" y="709" on="1"/>
        <pt x="889" y="702" on="0"/>
        <pt x="942" y="680" on="1"/>
        <pt x="1013" y="652" on="0"/>
        <pt x="1064" y="619" on="0"/>
        <pt x="1094" y="579" on="0"/>
        <pt x="1094" y="553" on="1"/>
        <pt x="1094" y="522" on="0"/>
        <pt x="1035" y="457" on="0"/>
        <pt x="954" y="410" on="1"/>
        <pt x="930" y="394" on="0"/>
        <pt x="889" y="372" on="0"/>
        <pt x="889" y="367" on="1"/>
        <pt x="889" y="362" on="0"/>
        <pt x="907" y="356" on="1"/>
        <pt x="996" y="323" on="0"/>
        <pt x="1094" y="258" on="0"/>
        <pt x="1094" y="213" on="1"/>
        <pt x="1094" y="166" on="0"/>
        <pt x="1027" y="92" on="0"/>
        <pt x="977" y="57" on="1"/>
        <pt x="871" y="-16" on="0"/>
        <pt x="803" y="-135" on="1"/>
        <pt x="672" y="-66" on="1"/>
        <pt x="737" y="62" on="0"/>
        <pt x="872" y="154" on="1"/>
        <pt x="905" y="176" on="0"/>
        <pt x="905" y="193" on="1"/>
        <pt x="905" y="208" on="0"/>
        <pt x="868" y="223" on="1"/>
        <pt x="815" y="244" on="1"/>
        <pt x="768" y="262" on="0"/>
        <pt x="723" y="321" on="0"/>
        <pt x="723" y="365" on="1"/>
        <pt x="723" y="400" on="0"/>
        <pt x="774" y="464" on="0"/>
        <pt x="847" y="505" on="0"/>
        <pt x="886" y="526" on="1"/>
        <pt x="905" y="534" on="0"/>
        <pt x="905" y="541" on="1"/>
        <pt x="905" y="549" on="0"/>
        <pt x="868" y="565" on="1"/>
        <pt x="815" y="587" on="1"/>
        <pt x="723" y="623" on="0"/>
        <pt x="723" y="707" on="1"/>
        <pt x="723" y="731" on="0"/>
        <pt x="741" y="769" on="0"/>
        <pt x="774" y="801" on="0"/>
        <pt x="820" y="831" on="0"/>
        <pt x="865" y="858" on="1"/>
        <pt x="905" y="879" on="0"/>
        <pt x="905" y="885" on="1"/>
        <pt x="905" y="892" on="0"/>
        <pt x="885" y="905" on="1"/>
        <pt x="766" y="986" on="0"/>
        <pt x="766" y="1141" on="1"/>
      </contour>
    </TTGlyph>
    <TTGlyph name="uni1709" xMin="119" yMin="0" xMax="2163" yMax="1298">
      <contour>
        <pt x="555" y="295" on="1"/>
        <pt x="555" y="220" on="0"/>
        <pt x="621" y="139" on="0"/>
        <pt x="680" y="139" on="1"/>
        <pt x="809" y="139" on="0"/>
        <pt x="1079" y="385" on="0"/>
        <pt x="1281" y="706" on="1"/>
        <pt x="1473" y="1008" on="1"/>
        <pt x="1569" y="1164" on="0"/>
        <pt x="1746" y="1298" on="0"/>
        <pt x="1864" y="1298" on="1"/>
        <pt x="1970" y="1298" on="0"/>
        <pt x="2122" y="1189" on="0"/>
        <pt x="2163" y="1092" on="1"/>
        <pt x="2034" y="1036" on="1"/>
        <pt x="1987" y="1159" on="0"/>
        <pt x="1855" y="1159" on="1"/>
        <pt x="1783" y="1159" on="0"/>
        <pt x="1668" y="1061" on="0"/>
        <pt x="1597" y="944" on="1"/>
        <pt x="1528" y="827" on="1"/>
        <pt x="1578" y="764" on="0"/>
        <pt x="1714" y="548" on="0"/>
        <pt x="1745" y="481" on="1"/>
        <pt x="1616" y="414" on="1"/>
        <pt x="1526" y="588" on="0"/>
        <pt x="1446" y="696" on="1"/>
        <pt x="1297" y="457" on="0"/>
        <pt x="1139" y="252" on="0"/>
        <pt x="1003" y="121" on="0"/>
        <pt x="867" y="38" on="0"/>
        <pt x="738" y="0" on="0"/>
        <pt x="670" y="0" on="1"/>
        <pt x="539" y="0" on="0"/>
        <pt x="397" y="160" on="0"/>
        <pt x="397" y="309" on="1"/>
        <pt x="397" y="417" on="0"/>
        <pt x="446" y="637" on="1"/>
        <pt x="459" y="694" on="0"/>
        <pt x="459" y="766" on="1"/>
        <pt x="119" y="766" on="1"/>
        <pt x="119" y="905" on="1"/>
        <pt x="408" y="905" on="1"/>
        <pt x="517" y="905" on="0"/>
        <pt x="616" y="832" on="0"/>
        <pt x="616" y="745" on="1"/>
        <pt x="616" y="684" on="0"/>
        <pt x="590" y="573" on="1"/>
        <pt x="566" y="466" on="0"/>
        <pt x="555" y="352" on="0"/>
      </contour>
    </TTGlyph>
    <TTGlyph name="uni170A" xMin="131" yMin="0" xMax="1612" yMax="1298">
      <contour>
        <pt x="893" y="352" on="1"/>
        <pt x="952" y="234" on="0"/>
        <pt x="1068" y="139" on="0"/>
        <pt x="1143" y="139" on="1"/>
        <pt x="1235" y="139" on="0"/>
        <pt x="1376" y="250" on="0"/>
        <pt x="1454" y="442" on="0"/>
        <pt x="1454" y="555" on="1"/>
        <pt x="1454" y="712" on="0"/>
        <pt x="1313" y="1002" on="0"/>
        <pt x="1095" y="1159" on="0"/>
        <pt x="969" y="1159" on="1"/>
        <pt x="794" y="1159" on="0"/>
        <pt x="485" y="946" on="0"/>
        <pt x="289" y="568" on="0"/>
        <pt x="289" y="365" on="1"/>
        <pt x="289" y="262" on="0"/>
        <pt x="402" y="139" on="0"/>
        <pt x="500" y="139" on="1"/>
        <pt x="596" y="139" on="0"/>
        <pt x="787" y="236" on="0"/>
      </contour>
      <contour>
        <pt x="864" y="141" on="1"/>
        <pt x="695" y="0" on="0"/>
        <pt x="489" y="0" on="1"/>
        <pt x="323" y="0" on="0"/>
        <pt x="131" y="205" on="0"/>
        <pt x="131" y="387" on="1"/>
        <pt x="131" y="545" on="0"/>
        <pt x="265" y="881" on="0"/>
        <pt x="501" y="1151" on="0"/>
        <pt x="810" y="1298" on="0"/>
        <pt x="977" y="1298" on="1"/>
        <pt x="1138" y="1298" on="0"/>
        <pt x="1429" y="1098" on="0"/>
        <pt x="1612" y="743" on="0"/>
        <pt x="1612" y="553" on="1"/>
        <pt x="1612" y="392" on="0"/>
        <pt x="1496" y="138" on="0"/>
        <pt x="1289" y="0" on="0"/>
        <pt x="1157" y="0" on="1"/>
        <pt x="1066" y="0" on="0"/>
        <pt x="932" y="58" on="0"/>
      </contour>
    </TTGlyph>
    <TTGlyph name="uni170B" xMin="119" yMin="0" xMax="2068" yMax="1298">
      <contour>
        <pt x="444" y="889" on="1"/>
        <pt x="119" y="889" on="1"/>
        <pt x="119" y="1028" on="1"/>
        <pt x="381" y="1028" on="1"/>
        <pt x="479" y="1028" on="0"/>
        <pt x="563" y="1001" on="0"/>
        <pt x="602" y="937" on="0"/>
        <pt x="602" y="879" on="1"/>
        <pt x="602" y="834" on="0"/>
        <pt x="594" y="797" on="1"/>
        <pt x="646" y="813" on="0"/>
        <pt x="799" y="834" on="0"/>
        <pt x="862" y="834" on="1"/>
        <pt x="1045" y="834" on="0"/>
        <pt x="1217" y="754" on="1"/>
        <pt x="1378" y="1008" on="1"/>
        <pt x="1478" y="1168" on="0"/>
        <pt x="1654" y="1298" on="0"/>
        <pt x="1769" y="1298" on="1"/>
        <pt x="1876" y="1298" on="0"/>
        <pt x="2028" y="1189" on="0"/>
        <pt x="2068" y="1092" on="1"/>
        <pt x="1939" y="1036" on="1"/>
        <pt x="1891" y="1159" on="0"/>
        <pt x="1761" y="1159" on="1"/>
        <pt x="1691" y="1159" on="0"/>
        <pt x="1575" y="1062" on="0"/>
        <pt x="1503" y="944" on="1"/>
        <pt x="1265" y="548" on="1"/>
        <pt x="1090" y="253" on="0"/>
        <pt x="806" y="0" on="0"/>
        <pt x="664" y="0" on="1"/>
        <pt x="538" y="0" on="0"/>
        <pt x="389" y="221" on="0"/>
        <pt x="389" y="406" on="1"/>
        <pt x="389" y="562" on="0"/>
        <pt x="421" y="725" on="1"/>
        <pt x="444" y="846" on="0"/>
      </contour>
      <contour>
        <pt x="856" y="694" on="1"/>
        <pt x="712" y="694" on="0"/>
        <pt x="567" y="645" on="1"/>
        <pt x="555" y="584" on="0"/>
        <pt x="547" y="471" on="0"/>
        <pt x="547" y="401" on="1"/>
        <pt x="547" y="291" on="0"/>
        <pt x="614" y="139" on="0"/>
        <pt x="664" y="139" on="1"/>
        <pt x="757" y="139" on="0"/>
        <pt x="980" y="360" on="0"/>
        <pt x="1145" y="635" on="1"/>
        <pt x="1010" y="694" on="0"/>
      </contour>
    </TTGlyph>
    <TTGlyph name="uni170C" xMin="119" yMin="0" xMax="2138" yMax="1298">
      <contour>
        <pt x="397" y="309" on="1"/>
        <pt x="397" y="417" on="0"/>
        <pt x="446" y="637" on="1"/>
        <pt x="459" y="694" on="0"/>
        <pt x="459" y="766" on="1"/>
        <pt x="119" y="766" on="1"/>
        <pt x="119" y="905" on="1"/>
        <pt x="408" y="905" on="1"/>
        <pt x="517" y="905" on="0"/>
        <pt x="616" y="832" on="0"/>
        <pt x="616" y="745" on="1"/>
        <pt x="616" y="684" on="0"/>
        <pt x="590" y="573" on="1"/>
        <pt x="566" y="466" on="0"/>
        <pt x="555" y="352" on="0"/>
        <pt x="555" y="295" on="1"/>
        <pt x="555" y="139" on="0"/>
        <pt x="686" y="139" on="1"/>
        <pt x="776" y="139" on="0"/>
        <pt x="975" y="278" on="0"/>
        <pt x="1203" y="573" on="0"/>
        <pt x="1386" y="887" on="1"/>
        <pt x="1442" y="981" on="0"/>
        <pt x="1535" y="1134" on="0"/>
        <pt x="1638" y="1240" on="0"/>
        <pt x="1765" y="1298" on="0"/>
        <pt x="1855" y="1298" on="1"/>
        <pt x="1976" y="1298" on="0"/>
        <pt x="2138" y="1147" on="0"/>
        <pt x="2138" y="1032" on="1"/>
        <pt x="2138" y="950" on="0"/>
        <pt x="2062" y="812" on="0"/>
        <pt x="1925" y="735" on="0"/>
        <pt x="1833" y="735" on="1"/>
        <pt x="1713" y="735" on="0"/>
        <pt x="1622" y="778" on="1"/>
        <pt x="1679" y="905" on="1"/>
        <pt x="1744" y="874" on="0"/>
        <pt x="1827" y="874" on="1"/>
        <pt x="1897" y="874" on="0"/>
        <pt x="1991" y="964" on="0"/>
        <pt x="1991" y="1032" on="1"/>
        <pt x="1991" y="1087" on="0"/>
        <pt x="1911" y="1159" on="0"/>
        <pt x="1847" y="1159" on="1"/>
        <pt x="1792" y="1159" on="0"/>
        <pt x="1701" y="1101" on="0"/>
        <pt x="1609" y="984" on="0"/>
        <pt x="1518" y="821" on="1"/>
        <pt x="1334" y="500" on="0"/>
        <pt x="1060" y="159" on="0"/>
        <pt x="804" y="0" on="0"/>
        <pt x="678" y="0" on="1"/>
        <pt x="541" y="0" on="0"/>
        <pt x="397" y="158" on="0"/>
      </contour>
    </TTGlyph>
    <TTGlyph name="uni170E" xMin="57" yMin="-20" xMax="1796" yMax="1303">
      <contour>
        <pt x="805" y="801" on="1"/>
        <pt x="805" y="894" on="0"/>
        <pt x="848" y="969" on="1"/>
        <pt x="723" y="911" on="0"/>
        <pt x="545" y="866" on="0"/>
        <pt x="471" y="866" on="1"/>
        <pt x="361" y="866" on="0"/>
        <pt x="173" y="941" on="0"/>
        <pt x="57" y="1040" on="1"/>
        <pt x="150" y="1151" on="1"/>
        <pt x="231" y="1073" on="0"/>
        <pt x="387" y="1006" on="0"/>
        <pt x="475" y="1006" on="1"/>
        <pt x="553" y="1006" on="0"/>
        <pt x="786" y="1089" on="0"/>
        <pt x="897" y="1149" on="1"/>
        <pt x="1046" y="1227" on="0"/>
        <pt x="1294" y="1303" on="0"/>
        <pt x="1407" y="1303" on="1"/>
        <pt x="1509" y="1303" on="0"/>
        <pt x="1683" y="1259" on="0"/>
        <pt x="1796" y="1200" on="1"/>
        <pt x="1733" y="1075" on="1"/>
        <pt x="1641" y="1125" on="0"/>
        <pt x="1497" y="1163" on="0"/>
        <pt x="1415" y="1163" on="1"/>
        <pt x="1282" y="1163" on="0"/>
        <pt x="1072" y="1076" on="0"/>
        <pt x="954" y="922" on="0"/>
        <pt x="954" y="829" on="1"/>
        <pt x="954" y="812" on="0"/>
        <pt x="966" y="788" on="0"/>
        <pt x="989" y="769" on="0"/>
        <pt x="1044" y="745" on="1"/>
        <pt x="1103" y="722" on="0"/>
        <pt x="1163" y="669" on="0"/>
        <pt x="1163" y="627" on="1"/>
        <pt x="1163" y="575" on="0"/>
        <pt x="1072" y="523" on="1"/>
        <pt x="1020" y="494" on="0"/>
        <pt x="983" y="466" on="0"/>
        <pt x="983" y="457" on="1"/>
        <pt x="983" y="451" on="0"/>
        <pt x="1058" y="418" on="0"/>
        <pt x="1093" y="404" on="1"/>
        <pt x="1184" y="367" on="0"/>
        <pt x="1184" y="307" on="1"/>
        <pt x="1184" y="260" on="0"/>
        <pt x="1124" y="195" on="0"/>
        <pt x="1073" y="160" on="1"/>
        <pt x="968" y="95" on="0"/>
        <pt x="895" y="-20" on="1"/>
        <pt x="768" y="47" on="1"/>
        <pt x="852" y="196" on="0"/>
        <pt x="979" y="272" on="1"/>
        <pt x="999" y="285" on="0"/>
        <pt x="999" y="293" on="1"/>
        <pt x="999" y="303" on="0"/>
        <pt x="963" y="315" on="1"/>
        <pt x="911" y="336" on="1"/>
        <pt x="817" y="370" on="0"/>
        <pt x="817" y="451" on="1"/>
        <pt x="817" y="492" on="0"/>
        <pt x="875" y="565" on="0"/>
        <pt x="956" y="602" on="1"/>
        <pt x="975" y="610" on="0"/>
        <pt x="975" y="616" on="1"/>
        <pt x="975" y="623" on="0"/>
        <pt x="957" y="631" on="0"/>
        <pt x="938" y="639" on="1"/>
        <pt x="805" y="690" on="0"/>
      </contour>
    </TTGlyph>
    <TTGlyph name="uni170F" xMin="119" yMin="0" xMax="1460" yMax="1380">
      <contour>
        <pt x="397" y="311" on="1"/>
        <pt x="397" y="417" on="0"/>
        <pt x="446" y="637" on="1"/>
        <pt x="459" y="694" on="0"/>
        <pt x="459" y="766" on="1"/>
        <pt x="119" y="766" on="1"/>
        <pt x="119" y="905" on="1"/>
        <pt x="408" y="905" on="1"/>
        <pt x="517" y="905" on="0"/>
        <pt x="616" y="832" on="0"/>
        <pt x="616" y="745" on="1"/>
        <pt x="616" y="684" on="0"/>
        <pt x="590" y="573" on="1"/>
        <pt x="566" y="468" on="0"/>
        <pt x="555" y="371" on="0"/>
        <pt x="555" y="326" on="1"/>
        <pt x="555" y="227" on="0"/>
        <pt x="644" y="139" on="0"/>
        <pt x="731" y="139" on="1"/>
        <pt x="858" y="139" on="0"/>
        <pt x="1130" y="399" on="0"/>
        <pt x="1303" y="794" on="0"/>
        <pt x="1303" y="965" on="1"/>
        <pt x="1303" y="1100" on="0"/>
        <pt x="1176" y="1241" on="0"/>
        <pt x="1053" y="1241" on="1"/>
        <pt x="968" y="1241" on="0"/>
        <pt x="825" y="1167" on="0"/>
        <pt x="774" y="1102" on="1"/>
        <pt x="670" y="1192" on="1"/>
        <pt x="816" y="1380" on="0"/>
        <pt x="1063" y="1380" on="1"/>
        <pt x="1253" y="1380" on="0"/>
        <pt x="1460" y="1164" on="0"/>
        <pt x="1460" y="961" on="1"/>
        <pt x="1460" y="744" on="0"/>
        <pt x="1232" y="281" on="0"/>
        <pt x="888" y="0" on="0"/>
        <pt x="719" y="0" on="1"/>
        <pt x="566" y="0" on="0"/>
        <pt x="397" y="164" on="0"/>
      </contour>
    </TTGlyph>
    <TTGlyph name="uni1710" xMin="39" yMin="-20" xMax="1790" yMax="1298">
      <contour>
        <pt x="492" y="0" on="1"/>
        <pt x="354" y="0" on="1"/>
        <pt x="350" y="1159" on="1"/>
        <pt x="39" y="1159" on="1"/>
        <pt x="39" y="1298" on="1"/>
        <pt x="301" y="1298" on="1"/>
        <pt x="383" y="1298" on="0"/>
        <pt x="471" y="1269" on="0"/>
        <pt x="508" y="1206" on="0"/>
        <pt x="508" y="1126" on="1"/>
        <pt x="512" y="309" on="1"/>
        <pt x="516" y="309" on="1"/>
        <pt x="649" y="585" on="0"/>
        <pt x="894" y="1007" on="0"/>
        <pt x="1073" y="1201" on="0"/>
        <pt x="1278" y="1298" on="0"/>
        <pt x="1397" y="1298" on="1"/>
        <pt x="1559" y="1298" on="0"/>
        <pt x="1751" y="1126" on="0"/>
        <pt x="1751" y="987" on="1"/>
        <pt x="1751" y="771" on="0"/>
        <pt x="1571" y="690" on="1"/>
        <pt x="1666" y="664" on="0"/>
        <pt x="1790" y="499" on="0"/>
        <pt x="1790" y="393" on="1"/>
        <pt x="1790" y="185" on="0"/>
        <pt x="1462" y="-20" on="0"/>
        <pt x="1133" y="-20" on="1"/>
        <pt x="1049" y="-20" on="1"/>
        <pt x="1049" y="119" on="1"/>
        <pt x="1114" y="119" on="1"/>
        <pt x="1380" y="119" on="0"/>
        <pt x="1632" y="255" on="0"/>
        <pt x="1632" y="393" on="1"/>
        <pt x="1632" y="491" on="0"/>
        <pt x="1483" y="598" on="0"/>
        <pt x="1350" y="598" on="1"/>
        <pt x="1198" y="598" on="1"/>
        <pt x="1198" y="737" on="1"/>
        <pt x="1292" y="737" on="1"/>
        <pt x="1428" y="737" on="0"/>
        <pt x="1593" y="861" on="0"/>
        <pt x="1593" y="967" on="1"/>
        <pt x="1593" y="1059" on="0"/>
        <pt x="1481" y="1159" on="0"/>
        <pt x="1380" y="1159" on="1"/>
        <pt x="1183" y="1159" on="0"/>
        <pt x="1004" y="891" on="1"/>
        <pt x="917" y="762" on="0"/>
        <pt x="761" y="480" on="1"/>
        <pt x="558" y="113" on="0"/>
      </contour>
    </TTGlyph>
    <TTGlyph name="uni1711" xMin="106" yMin="483" xMax="2044" yMax="799">
      <contour>
        <pt x="621" y="483" on="1"/>
        <pt x="481" y="483" on="0"/>
        <pt x="241" y="571" on="0"/>
        <pt x="106" y="672" on="1"/>
        <pt x="184" y="786" on="1"/>
        <pt x="308" y="697" on="0"/>
        <pt x="501" y="623" on="0"/>
        <pt x="625" y="623" on="1"/>
        <pt x="815" y="623" on="0"/>
        <pt x="1085" y="713" on="1"/>
        <pt x="1349" y="799" on="0"/>
        <pt x="1526" y="799" on="1"/>
        <pt x="1664" y="799" on="0"/>
        <pt x="1904" y="713" on="0"/>
        <pt x="2044" y="610" on="1"/>
        <pt x="1958" y="500" on="1"/>
        <pt x="1835" y="591" on="0"/>
        <pt x="1634" y="659" on="0"/>
        <pt x="1499" y="659" on="1"/>
        <pt x="1383" y="659" on="0"/>
        <pt x="1213" y="606" on="1"/>
        <pt x="960" y="527" on="0"/>
        <pt x="721" y="483" on="0"/>
      </contour>
    </TTGlyph>
    <TTGlyph name="uni1712" xMin="-451" yMin="1440" xMax="-240" yMax="1669">
      <contour>
        <pt x="-451" y="1554" on="1"/>
        <pt x="-451" y="1614" on="0"/>
        <pt x="-389" y="1669" on="0"/>
        <pt x="-344" y="1669" on="1"/>
        <pt x="-296" y="1669" on="0"/>
        <pt x="-240" y="1607" on="0"/>
        <pt x="-240" y="1554" on="1"/>
        <pt x="-240" y="1501" on="0"/>
        <pt x="-299" y="1440" on="0"/>
        <pt x="-344" y="1440" on="1"/>
        <pt x="-389" y="1440" on="0"/>
        <pt x="-451" y="1496" on="0"/>
      </contour>
    </TTGlyph>
    <TTGlyph name="uni1713" xMin="-307" yMin="-283" xMax="-96" yMax="-53">
      <contour>
        <pt x="-307" y="-168" on="1"/>
        <pt x="-307" y="-108" on="0"/>
        <pt x="-246" y="-53" on="0"/>
        <pt x="-201" y="-53" on="1"/>
        <pt x="-159" y="-53" on="0"/>
        <pt x="-96" y="-108" on="0"/>
        <pt x="-96" y="-168" on="1"/>
        <pt x="-96" y="-227" on="0"/>
        <pt x="-159" y="-283" on="0"/>
        <pt x="-201" y="-283" on="1"/>
        <pt x="-246" y="-283" on="0"/>
        <pt x="-307" y="-227" on="0"/>
      </contour>
    </TTGlyph>
    <TTGlyph name="uni1714" xMin="-692" yMin="-317" xMax="-387" yMax="-12">
      <contour>
        <pt x="-590" y="-317" on="1"/>
        <pt x="-590" y="-217" on="1"/>
        <pt x="-692" y="-217" on="1"/>
        <pt x="-692" y="-115" on="1"/>
        <pt x="-590" y="-115" on="1"/>
        <pt x="-590" y="-12" on="1"/>
        <pt x="-487" y="-12" on="1"/>
        <pt x="-487" y="-115" on="1"/>
        <pt x="-387" y="-115" on="1"/>
        <pt x="-387" y="-217" on="1"/>
        <pt x="-487" y="-217" on="1"/>
        <pt x="-487" y="-317" on="1"/>
      </contour>
    </TTGlyph>
    <TTGlyph name="uni1735" xMin="37" yMin="-285" xMax="598" yMax="1536">
      <contour>
        <pt x="37" y="-285" on="1"/>
        <pt x="455" y="1536" on="1"/>
        <pt x="598" y="1536" on="1"/>
        <pt x="178" y="-285" on="1"/>
      </contour>
    </TTGlyph>
    <TTGlyph name="uni1736" xMin="37" yMin="-285" xMax="924" yMax="1536">
      <component glyphName="uni1735" x="0" y="0" flags="0x4"/>
      <component glyphName="uni1735" x="326" y="0" flags="0x4"/>
    </TTGlyph>
</ttFont>
